<svg id="Layer_1" xmlns="http://www.w3.org/2000/svg" width="400" height="270" viewBox="65 0 400 270"><style>.st0{fill:#05526a;stroke:#05526a;stroke-miterlimit:10}.st1{opacity:.5;fill:#ebebeb;enable-background:new}.st2{opacity:.6}.st2,.st3{fill:#ebebeb;enable-background:new}.st3{opacity:.3}.st4{fill:#cfd5d8}.st5,.st6{fill:#05526a}.st6{opacity:.5;enable-background:new}.st7{fill:#ced4d6}.st8{fill:#ececec}.st9{fill:none;stroke:#ececec;stroke-width:2;stroke-linecap:round;stroke-miterlimit:10}</style><path class="st0" d="M65 0h400v29.5H65z"/><path class="st1" d="M132.7 21.4h-50c-1.1 0-2-.9-2-2v-9.2c0-1.1.9-2 2-2h50c1.1 0 2 .9 2 2v9.2c0 1.1-.9 2-2 2z"/><path class="st2" d="M446.6 21.4h-25.5c-1.1 0-2-.9-2-2v-9.2c0-1.1.9-2 2-2h25.5c1.1 0 2 .9 2 2v9.2c0 1.1-.9 2-2 2z"/><path class="st3" d="M178.7 18.9h-26.3c-1.1 0-2-.9-2-2v-4.4c0-1.1.9-2 2-2h26.3c1.1 0 2 .9 2 2v4.4c0 1.1-.9 2-2 2z"/><path class="st4" d="M233.5 56.3H84.3c-1.1 0-2-.9-2-2v-5c0-1.1.9-2 2-2h149.1c1.1 0 2 .9 2 2v5c.1 1.1-.8 2-1.9 2z"/><path class="st5" d="M127 121.6H84.3c-1.1 0-2-.9-2-2v-10.9c0-1.1.9-2 2-2H127c1.1 0 2 .9 2 2v10.9c0 1.1-.9 2-2 2z"/><path class="st6" d="M180.4 121.6h-42.7c-1.1 0-2-.9-2-2v-10.9c0-1.1.9-2 2-2h42.7c1.1 0 2 .9 2 2v10.9c0 1.1-.9 2-2 2z"/><path class="st7" d="M348 122.6h-82.3c-1.1 0-2-.9-2-2V49.3c0-1.1.9-2 2-2H348c1.1 0 2 .9 2 2v71.3c0 1.1-1 2-2 2z"/><path class="st8" d="M240.8 77.6H84.3c-1.1 0-2-.9-2-2v-5c0-1.1.9-2 2-2h156.5c1.1 0 2 .9 2 2v5c0 1.2-.9 2-2 2zM228.2 93.1H84.3c-1.1 0-2-.9-2-2v-5c0-1.1.9-2 2-2h143.9c1.1 0 2 .9 2 2v5c0 1.1-.9 2-2 2z"/><path class="st7" d="M445.7 122.6h-82.3c-1.1 0-2-.9-2-2V49.3c0-1.1.9-2 2-2h82.3c1.1 0 2 .9 2 2v71.3c0 1.1-.9 2-2 2z"/><path class="st8" d="M437.4 69.6h-65.6c-1.1 0-2-.9-2-2v-5c0-1.1.9-2 2-2h65.6c1.1 0 2 .9 2 2v5c0 1.2-.9 2-2 2zM437.4 88.1h-65.6c-1.1 0-2-.9-2-2v-5c0-1.1.9-2 2-2h65.6c1.1 0 2 .9 2 2v5c0 1.1-.9 2-2 2z"/><path class="st5" d="M406.6 109.9h-34.8c-1.1 0-2-.9-2-2v-7.2c0-1.1.9-2 2-2h34.8c1.1 0 2 .9 2 2v7.2c0 1.1-.9 2-2 2z"/><path class="st4" d="M179.3 236H82.8c-1.1 0-2-.9-2-2v-5c0-1.1.9-2 2-2h96.5c1.1 0 2 .9 2 2v5c0 1.1-.9 2-2 2z"/><path class="st8" d="M184.2 251.3H82.8c-1.1 0-2-.9-2-2v-5c0-1.1.9-2 2-2h101.4c1.1 0 2 .9 2 2v5c0 1.1-.9 2-2 2z"/><path class="st7" d="M185.6 215.7H82.8c-1.1 0-2-.9-2-2v-52.4c0-1.1.9-2 2-2h102.8c1.1 0 2 .9 2 2v52.4c0 1.1-.9 2-2 2z"/><path class="st4" d="M310.8 236h-97.9c-1.1 0-2-.9-2-2v-5c0-1.1.9-2 2-2h97.9c1.1 0 2 .9 2 2v5c0 1.1-.9 2-2 2z"/><path class="st8" d="M315.7 251.3H212.8c-1.1 0-2-.9-2-2v-5c0-1.1.9-2 2-2h102.8c1.1 0 2 .9 2 2v5c.1 1.1-.8 2-1.9 2z"/><path class="st7" d="M317.2 215.7H212.8c-1.1 0-2-.9-2-2v-52.4c0-1.1.9-2 2-2h104.3c1.1 0 2 .9 2 2v52.4c.1 1.1-.8 2-1.9 2z"/><g><path class="st4" d="M441.6 236h-98c-1.1 0-2-.9-2-2v-5c0-1.1.9-2 2-2h98c1.1 0 2 .9 2 2v5c0 1.1-.9 2-2 2z"/><path class="st8" d="M446.5 251.3h-103c-1.1 0-2-.9-2-2v-5c0-1.1.9-2 2-2h103c1.1 0 2 .9 2 2v5c0 1.1-.9 2-2 2z"/><path class="st7" d="M448 215.7H343.6c-1.1 0-2-.9-2-2v-52.4c0-1.1.9-2 2-2H448c1.1 0 2 .9 2 2v52.4c0 1.1-.9 2-2 2z"/></g><path class="st9" d="M80.7 143h369.4"/><path class="st3" d="M218.7 18.9h-26.3c-1.1 0-2-.9-2-2v-4.4c0-1.1.9-2 2-2h26.3c1.1 0 2 .9 2 2v4.4c0 1.1-.9 2-2 2zM258.7 18.9h-26.3c-1.1 0-2-.9-2-2v-4.4c0-1.1.9-2 2-2h26.3c1.1 0 2 .9 2 2v4.4c0 1.1-.9 2-2 2zM408.7 18.9h-26.3c-1.1 0-2-.9-2-2v-4.4c0-1.1.9-2 2-2h26.3c1.1 0 2 .9 2 2v4.4c0 1.1-.9 2-2 2z"/></svg>