<svg id="Layer_1" xmlns="http://www.w3.org/2000/svg" width="400" height="270" viewBox="65 0 400 270"><style>.st0{fill:#05526a;stroke:#05526a;stroke-miterlimit:10}.st1{opacity:.6}.st1,.st2{fill:#ebebeb;enable-background:new}.st2{opacity:.3}.st3{fill:#ececec}.st4{fill:#cfd5d8}.st5{fill:#ced4d6}</style><path class="st0" d="M65 0h400v29.5H65z"/><path class="st1" d="M448.6 21.4h-25.5c-1.1 0-2-.9-2-2v-9.2c0-1.1.9-2 2-2h25.5c1.1 0 2 .9 2 2v9.2c0 1.1-.9 2-2 2z"/><path class="st2" d="M108.7 18.9H82.4c-1.1 0-2-.9-2-2v-4.4c0-1.1.9-2 2-2h26.3c1.1 0 2 .9 2 2v4.4c0 1.1-.9 2-2 2zM148.7 18.9h-26.3c-1.1 0-2-.9-2-2v-4.4c0-1.1.9-2 2-2h26.3c1.1 0 2 .9 2 2v4.4c0 1.1-.9 2-2 2zM188.7 18.9h-26.3c-1.1 0-2-.9-2-2v-4.4c0-1.1.9-2 2-2h26.3c1.1 0 2 .9 2 2v4.4c0 1.1-.9 2-2 2zM408.7 18.9h-26.3c-1.1 0-2-.9-2-2v-4.4c0-1.1.9-2 2-2h26.3c1.1 0 2 .9 2 2v4.4c0 1.1-.9 2-2 2z"/><path class="st3" d="M65 74h400v29.5H65z"/><path class="st4" d="M128.7 92.9h-26.3c-1.1 0-2-.9-2-2v-4.4c0-1.1.9-2 2-2h26.3c1.1 0 2 .9 2 2v4.4c0 1.1-.9 2-2 2zM188.7 92.9h-26.3c-1.1 0-2-.9-2-2v-4.4c0-1.1.9-2 2-2h26.3c1.1 0 2 .9 2 2v4.4c0 1.1-.9 2-2 2zM248.7 92.9h-26.3c-1.1 0-2-.9-2-2v-4.4c0-1.1.9-2 2-2h26.3c1.1 0 2 .9 2 2v4.4c0 1.1-.9 2-2 2zM428.6 92.9h-26.3c-1.1 0-2-.9-2-2v-4.4c0-1.1.9-2 2-2h26.3c1.1 0 2 .9 2 2v4.4c0 1.1-.9 2-2 2zM308.6 92.9h-26.3c-1.1 0-2-.9-2-2v-4.4c0-1.1.9-2 2-2h26.3c1.1 0 2 .9 2 2v4.4c0 1.1-.9 2-2 2zM368.6 92.9h-26.3c-1.1 0-2-.9-2-2v-4.4c0-1.1.9-2 2-2h26.3c1.1 0 2 .9 2 2v4.4c0 1.1-.9 2-2 2zM140 58.5H82.4c-1.1 0-2-.9-2-2V44.2c0-1.1.9-2 2-2H140c1.1 0 2 .9 2 2v12.3c0 1.1-.9 2-2 2zM448.6 62.8H160.3c-1.1 0-2-.9-2-2v-21c0-1.1.9-2 2-2h288.3c1.1 0 2 .9 2 2v21c0 1.1-.9 2-2 2z"/><path class="st5" d="M297.9 252.4H82.4c-1.1 0-2-.9-2-2V119.6c0-1.1.9-2 2-2h215.5c1.1 0 2 .9 2 2v130.8c0 1.1-.9 2-2 2zM447.9 175.8H317.4c-1.1 0-2-.9-2-2v-54.7c0-1.1.9-2 2-2h130.5c1.1 0 2 .9 2 2v54.7c0 1.1-.9 2-2 2zM447.9 252.4H317.4c-1.1 0-2-.9-2-2V193c0-1.1.9-2 2-2h130.5c1.1 0 2 .9 2 2v57.4c0 1.1-.9 2-2 2z"/></svg>