<svg id="Layer_1" xmlns="http://www.w3.org/2000/svg" width="400" height="270" viewBox="0 0 400 270"><style>.st0{fill:#FFF;stroke:#e2e2e2;stroke-miterlimit:10}.st1{opacity:.5;fill:none;stroke:#ebebeb;stroke-width:4.3124;stroke-linecap:round}.st1,.st2{stroke-miterlimit:10}.st2{fill:#05526a;stroke:#05526a}.st3{opacity:.5;fill:#ebebeb}.st4{opacity:.1;fill:#ebebeb}.st5{fill:#ced4d6}.st6{fill:#9dadb3}.st7,.st8{fill:#05526a}.st8{opacity:.75}.st9{fill:#ececec}.st10{opacity:.25;fill:#ebebeb}.st11{fill:#FFF}.st12{stroke:#ced4d6}.st12,.st13{fill:#ced4d6;stroke-miterlimit:10}.st13{stroke:#e2e2e2}</style><path class="st0" d="M7.3 18.3H394c2.8 0 5 2.3 5 5.2v238c0 2.9-2.2 5.2-5 5.2H7.3c-2.8 0-5-2.3-5-5.2v-238c0-2.8 2.2-5.2 5-5.2z"/><path class="st1" d="M60.9 29.5h58.3"/><path class="st2" d="M396.3 4.4H5c-1.7 0-3 .9-3 2.1V34.1h397.3V6.5c0-1.1-1.4-2.1-3-2.1z"/><path class="st3" d="M82 15.1H18.2c-1.1 0-2 .9-2 2v5c0 1.1.9 2 2 2H82c1.1 0 2-.9 2-2v-5c0-1.1-.9-2-2-2z"/><path class="st4" d="M135.8 15.1H97.6c-.7 0-1.2.9-1.2 2v5c0 1.1.5 2 1.2 2h38.2c.7 0 1.2-.9 1.2-2v-5c0-1.1-.6-2-1.2-2zM183.7 15.1h-38.2c-.7 0-1.2.9-1.2 2v5c0 1.1.5 2 1.2 2h38.2c.7 0 1.2-.9 1.2-2v-5c0-1.1-.6-2-1.2-2zM344.3 15.1h-31.9c-.6 0-1 .9-1 2v5c0 1.1.5 2 1 2h31.9c.6 0 1-.9 1-2v-5c0-1.1-.4-2-1-2zM383.4 15.1h-31.9c-.6 0-1 .9-1 2v5c0 1.1.5 2 1 2h31.9c.6 0 1-.9 1-2v-5c0-1.1-.5-2-1-2zM266.2 15.1h-31.9c-.6 0-1 .9-1 2v5c0 1.1.5 2 1 2h31.9c.6 0 1-.9 1-2v-5c.1-1.1-.4-2-1-2zM305.3 15.1h-31.9c-.6 0-1 .9-1 2v5c0 1.1.5 2 1 2h31.9c.6 0 1-.9 1-2v-5c0-1.1-.5-2-1-2z"/><path class="st5" d="M380.8 51.8h-115H294 20.5c-1.1 0-2 .8-2 1.8v88.2c0 1 .9 1.8 2 1.8H293.9h-28.2 115c1.1 0 2-.8 2-1.8V53.6c.1-1-.8-1.8-1.9-1.8z"/><g><path class="st6" d="M361.1 97.8v-7.5c0-.8.9-1.3 1.6-.9l6.5 3.7 6.5 3.7c.7.4.7 1.5 0 1.9l-6.5 3.7-6.5 3.7c-.7.4-1.6-.1-1.6-.9v-7.4zM48.4 97.8v7.5c0 .8-.9 1.3-1.6.9l-6.5-3.7-6.5-3.7c-.7-.4-.7-1.5 0-1.9l6.5-3.7 6.5-3.7c.7-.4 1.6.1 1.6.9v7.4z"/></g><g><path class="st8" d="M67.9 233.4c0-.6-1.5-1.1-3.4-1.1h-41c-1.9 0-3.4.5-3.4 1.1v12.7c0 .6 1.5 1.1 3.4 1.1h40.9c1.9 0 3.4-.5 3.4-1.1v-12.7z"/><path class="st9" d="M79.6 200.4H22.1c-1.1 0-2 .9-2 2v5c0 1.1.9 2 2 2h57.5c1.1 0 2-.9 2-2v-5c0-1.1-.9-2-2-2zM72.2 213.2H22.1c-1.1 0-2 .9-2 2v5c0 1.1.9 2 2 2H72.2c1.1 0 2-.9 2-2v-5c0-1.1-.9-2-2-2z"/><path class="st5" d="M66.2 163.6c0-.9-.7-1.5-1.5-1.5h-43c-.9 0-1.5.7-1.5 1.5v29.6c0 .9.7 1.5 1.5 1.5h42.9c.9 0 1.5-.7 1.5-1.5v-29.6z"/></g><g><path class="st8" d="M168 233.4c0-.6-1.5-1.1-3.4-1.1h-40.9c-1.9 0-3.4.5-3.4 1.1v12.7c0 .6 1.5 1.1 3.4 1.1h40.9c1.9 0 3.4-.5 3.4-1.1v-12.7z"/><path class="st9" d="M179.8 200.4h-57.5c-1.1 0-2 .9-2 2v5c0 1.1.9 2 2 2h57.5c1.1 0 2-.9 2-2v-5c0-1.1-.9-2-2-2zM172.4 213.2H122.3c-1.1 0-2 .9-2 2v5c0 1.1.9 2 2 2H172.4c1.1 0 2-.9 2-2v-5c0-1.1-.9-2-2-2z"/><path class="st5" d="M166.3 163.6c0-.9-.7-1.5-1.5-1.5h-42.9c-.9 0-1.5.7-1.5 1.5v29.6c0 .9.7 1.5 1.5 1.5h42.9c.9 0 1.5-.7 1.5-1.5v-29.6z"/></g><g><path class="st8" d="M268.2 233.4c0-.6-1.5-1.1-3.4-1.1h-40.9c-1.9 0-3.4.5-3.4 1.1v12.7c0 .6 1.5 1.1 3.4 1.1h40.9c1.9 0 3.4-.5 3.4-1.1v-12.7z"/><path class="st9" d="M280 200.4h-57.5c-1.1 0-2 .9-2 2v5c0 1.1.9 2 2 2H280c1.1 0 2-.9 2-2v-5c0-1.1-.9-2-2-2zM272.6 213.2H222.5c-1.1 0-2 .9-2 2v5c0 1.1.9 2 2 2H272.6c1.1 0 2-.9 2-2v-5c0-1.1-.9-2-2-2z"/><path class="st5" d="M266.5 163.6c0-.9-.7-1.5-1.5-1.5h-43c-.9 0-1.5.7-1.5 1.5v29.6c0 .9.7 1.5 1.5 1.5h43c.9 0 1.5-.7 1.5-1.5v-29.6z"/></g><g><path class="st8" d="M368.4 233.4c0-.6-1.5-1.1-3.4-1.1h-40.9c-1.9 0-3.4.5-3.4 1.1v12.7c0 .6 1.5 1.1 3.4 1.1H365c1.9 0 3.4-.5 3.4-1.1v-12.7z"/><path class="st9" d="M380.2 200.4h-57.5c-1.1 0-2 .9-2 2v5c0 1.1.9 2 2 2h57.5c1.1 0 2-.9 2-2v-5c0-1.1-.9-2-2-2zM372.8 213.2H322.7c-1.1 0-2 .9-2 2v5c0 1.1.9 2 2 2H372.8c1.1 0 2-.9 2-2v-5c0-1.1-.9-2-2-2z"/><path class="st5" d="M366.7 163.6c0-.9-.7-1.5-1.5-1.5h-42.9c-.9 0-1.5.7-1.5 1.5v29.6c0 .9.7 1.5 1.5 1.5h42.9c.9 0 1.5-.7 1.5-1.5v-29.6z"/></g></svg>