<svg id="Layer_1" xmlns="http://www.w3.org/2000/svg" width="400" height="270" viewBox="0 0 400 270"><style>.st0{fill:#FFF;stroke:#e2e2e2;stroke-miterlimit:10}.st1{opacity:.5;fill:none;stroke:#ebebeb;stroke-width:4.3124;stroke-linecap:round}.st1,.st2{stroke-miterlimit:10}.st2{fill:#05526a;stroke:#05526a}.st3{opacity:.5;fill:#ebebeb}.st4{opacity:.1;fill:#ebebeb}.st5{fill:#ced4d6}.st6{fill:#9dadb3}.st7,.st8{fill:#05526a}.st8{opacity:.75}.st9{fill:#ececec}.st10{opacity:.25;fill:#ebebeb}.st11{fill:#FFF}.st12{stroke:#ced4d6}.st12,.st13{fill:#ced4d6;stroke-miterlimit:10}.st13{stroke:#e2e2e2}</style><path class="st0" d="M6.3 17.4H393c2.8 0 5 2.3 5 5.2v238c0 2.9-2.2 5.2-5 5.2H6.3c-2.8 0-5-2.3-5-5.2v-238c0-2.8 2.2-5.2 5-5.2z"/><path class="st1" d="M59.9 28.6h58.3"/><path class="st2" d="M395.3 3.5H4c-1.7 0-3 .9-3 2.1V33.2h397.3V5.6c0-1.1-1.4-2.1-3-2.1z"/><path class="st7" d="M249.7 154.8c0-.6-1.5-1.1-3.4-1.1h-40.9c-1.9 0-3.4.5-3.4 1.1v12.7c0 .6 1.5 1.1 3.4 1.1h40.9c1.9 0 3.4-.5 3.4-1.1v-12.7z"/><path class="st8" d="M303.2 154.8c0-.6-1.5-1.1-3.4-1.1h-40.9c-1.9 0-3.4.5-3.4 1.1v12.7c0 .6 1.5 1.1 3.4 1.1h40.9c1.9 0 3.4-.5 3.4-1.1v-12.7z"/><path class="st6" d="M338 55.3H202.6c-1.1 0-2 .9-2 2v5c0 1.1.9 2 2 2H338c1.1 0 2-.9 2-2v-5c0-1.1-.9-2-2-2z"/><path class="st3" d="M69.9 14.2H17.3c-1.1 0-2 .9-2 2v5c0 1.1.9 2 2 2H70c1.1 0 2-.9 2-2v-5c-.1-1.1-1-2-2.1-2z"/><path class="st4" d="M358.3 14.1h-60.9c-.6 0-1 .9-1 2v5c0 1.1.5 2 1 2h63.8V14h-2.9z"/><path class="st10" d="M379.4 14.1h-18.2v9.1h18.2c.6 0 1-.9 1-2v-5c0-1.2-.5-2.1-1-2.1z"/><path class="st5" d="M177.5 51.6H19.7c-2.2 0-4 1.8-4 4v75.8c0 2.2 1.8 4 4 4h157.7c2.2 0 4-1.8 4-4V55.6c.1-2.2-1.7-4-3.9-4zM48.9 147.5c0-.6-.5-1.1-1.1-1.1h-31c-.6 0-1.1.5-1.1 1.1v21.3c0 .6.5 1.1 1.1 1.1h31c.6 0 1.1-.5 1.1-1.1v-21.3z"/><path class="st9" d="M116 207.7H73.7c-1.1 0-2 .9-2 2v5c0 1.1.9 2 2 2H116c1.1 0 2-.9 2-2v-5c.1-1.1-.8-2-2-2zM108.6 222.5H73.7c-1.1 0-2 .9-2 2v5c0 1.1.9 2 2 2h35c1.1 0 2-.9 2-2v-5c0-1.1-.9-2-2.1-2z"/><path class="st5" d="M61.8 208.4c0-.9-.7-1.5-1.5-1.5h-43c-.9 0-1.5.7-1.5 1.5V238c0 .9.7 1.5 1.5 1.5h42.9c.9 0 1.5-.7 1.5-1.5v-29.6z"/><path class="st9" d="M233.4 207.7h-33.3c-1.1 0-2 .9-2 2v5c0 1.1.9 2 2 2h33.3c1.1 0 2-.9 2-2v-5c0-1.1-.9-2-2-2zM250.2 222.5H200.1c-1.1 0-2 .9-2 2v5c0 1.1.9 2 2 2H250.2c1.1 0 2-.9 2-2v-5c0-1.1-.9-2-2-2z"/><path class="st5" d="M188.2 208.4c0-.9-.7-1.5-1.5-1.5h-42.9c-.9 0-1.5.7-1.5 1.5V238c0 .9.7 1.5 1.5 1.5h42.9c.9 0 1.5-.7 1.5-1.5v-29.6z"/><g><path class="st9" d="M363.1 207.7h-31.3c-1.1 0-2 .9-2 2v5c0 1.1.9 2 2 2h31.3c1.1 0 2-.9 2-2v-5c0-1.1-.9-2-2-2zM378.9 222.5h-47c-1.1 0-2 .9-2 2v5c0 1.1.9 2 2 2h47c1.1 0 2-.9 2-2v-5c0-1.1-.9-2-2-2z"/><path class="st5" d="M319.9 208.4c0-.9-.7-1.5-1.5-1.5h-42.9c-.9 0-1.5.7-1.5 1.5V238c0 .9.7 1.5 1.5 1.5h42.9c.9 0 1.5-.7 1.5-1.5v-29.6z"/></g><path class="st5" d="M92.8 147.5c0-.6-.5-1.1-1.1-1.1h-31c-.6 0-1.1.5-1.1 1.1v21.3c0 .6.5 1.1 1.1 1.1h31c.6 0 1.1-.5 1.1-1.1v-21.3zM136.7 147.5c0-.6-.5-1.1-1.1-1.1h-31c-.6 0-1.1.5-1.1 1.1v21.3c0 .6.5 1.1 1.1 1.1h31c.6 0 1.1-.5 1.1-1.1v-21.3zM180.6 147.5c0-.6-.5-1.1-1.1-1.1h-31c-.6 0-1.1.5-1.1 1.1v21.3c0 .6.5 1.1 1.1 1.1h31c.6 0 1.1-.5 1.1-1.1v-21.3z"/><g><path class="st9" d="M202.5 84.2H359.1c1.1 0 2-.9 2-2v-5c0-1.1-.9-2-2-2H202.6c-1.1 0-2 .9-2 2v5c-.1 1.1.8 2 1.9 2zM381.7 90.6H202.6c-1.1 0-2 .9-2 2v5c0 1.1.9 2 2 2h179.2c1.1 0 2-.9 2-2v-5c-.1-1.1-1-2-2.1-2zM202.5 115.1h165.1c1.1 0 2-.9 2-2v-5c0-1.1-.9-2-2-2h-165c-1.1 0-2 .9-2 2v5c-.1 1.1.8 2 1.9 2zM377 121.5H202.6c-1.1 0-2 .9-2 2v5c0 1.1.9 2 2 2H377c1.1 0 2-.9 2-2v-5c0-1.1-.9-2-2-2z"/></g></svg>