<svg id="Layer_1" xmlns="http://www.w3.org/2000/svg" width="400" height="270" viewBox="0 0 400 270"><style>.st0{fill:#FFF;stroke:#e2e2e2;stroke-miterlimit:10}.st1{opacity:.5;fill:none;stroke:#ebebeb;stroke-width:4.3124;stroke-linecap:round}.st1,.st2{stroke-miterlimit:10}.st2{fill:#05526a;stroke:#05526a}.st3{opacity:.5;fill:#ebebeb}.st4{opacity:.1;fill:#ebebeb}.st5{fill:#ced4d6}.st6{fill:#9dadb3}.st7,.st8{fill:#05526a}.st8{opacity:.75}.st9{fill:#ececec}.st10{opacity:.25;fill:#ebebeb}.st11{fill:#FFF}.st12{stroke:#ced4d6}.st12,.st13{fill:#ced4d6;stroke-miterlimit:10}.st13{stroke:#e2e2e2}</style><path class="st5" d="M1.8 26.9h396.8V77H1.8z"/><path class="st0" d="M1.8 75.4v186.1c0 2.9 2.2 5.2 5 5.2h386.8c2.8 0 5-2.3 5-5.2V75.4H1.8z"/><path class="st1" d="M171 29.4h58.3"/><path class="st2" d="M395.8 4.4H4.5c-1.7 0-3 .9-3 2.1V34.1h397.3V6.5c0-1.2-1.4-2.1-3-2.1z"/><path class="st3" d="M81.5 15H17.7c-1.1 0-2 .9-2 2v5c0 1.1.9 2 2 2h63.8c1.1 0 2-.9 2-2v-5c0-1.1-.9-2-2-2z"/><path class="st4" d="M135.3 15H97.1c-.7 0-1.2.9-1.2 2v5c0 1.1.5 2 1.2 2h38.2c.7 0 1.2-.9 1.2-2v-5c0-1.1-.6-2-1.2-2zM183.2 15H145c-.7 0-1.2.9-1.2 2v5c0 1.1.5 2 1.2 2h38.2c.7 0 1.2-.9 1.2-2v-5c0-1.1-.6-2-1.2-2zM343.8 15H312c-.6 0-1 .9-1 2v5c0 1.1.5 2 1 2h31.9c.6 0 1-.9 1-2v-5c-.1-1.1-.5-2-1.1-2zM382.9 15H351c-.6 0-1 .9-1 2v5c0 1.1.5 2 1 2h31.9c.6 0 1-.9 1-2v-5c0-1.1-.5-2-1-2zM265.7 15h-31.9c-.6 0-1 .9-1 2v5c0 1.1.5 2 1 2h31.9c.6 0 1-.9 1-2v-5c.1-1.1-.4-2-1-2zM304.8 15h-31.9c-.6 0-1 .9-1 2v5c0 1.1.5 2 1 2h31.9c.6 0 1-.9 1-2v-5c0-1.1-.5-2-1-2z"/><path class="st5" d="M305.9 105.2H94.4c-1.7 0-3.2 1.4-3.2 3.2V169c0 1.7 1.4 3.2 3.2 3.2H306c1.7 0 3.2-1.4 3.2-3.2v-60.6c-.1-1.8-1.6-3.2-3.3-3.2z"/><path class="st6" d="M241.2 90.6h-82c-1.1 0-2 .9-2 2v5c0 1.1.9 2 2 2h82c1.1 0 2-.9 2-2v-5c0-1.1-.9-2-2-2z"/><path class="st11" d="M257.6 49.6H142.6c-1.1 0-2 .9-2 2v5c0 1.1.9 2 2 2H257.6c1.1 0 2-.9 2-2v-5c0-1.1-.9-2-2-2z"/><g><path class="st9" d="M306.4 178.7h-47c-.2 0-.5 0-.7.1-.2-.1-.4-.1-.7-.1H93.9c-1.1 0-2 .9-2 2v5c0 1.1.9 2 2 2h164c.2 0 .5 0 .7-.1.2.1.4.1.7.1h47c1.1 0 2-.9 2-2v-5c.1-1.1-.8-2-1.9-2zM297 192.1H93.9c-1.1 0-2 .9-2 2v5c0 1.1.9 2 2 2H296.9c1.1 0 2-.9 2-2v-5c.1-1.1-.8-2-1.9-2z"/></g><g><path class="st6" d="M241.2 227h-82c-1.1 0-2 .9-2 2v5c0 1.1.9 2 2 2h82c1.1 0 2-.9 2-2v-5c0-1.1-.9-2-2-2z"/></g><g><path class="st5" d="M309.1 244.8c0-1.7-1.4-3.2-3.2-3.2H94.4c-1.7 0-3.2 1.4-3.2 3.2v21.7H309v-21.7z"/></g></svg>