<svg id="Layer_1" xmlns="http://www.w3.org/2000/svg" width="400" height="270" viewBox="0 0 400 270"><style>.st0{fill:#FFF;stroke:#e2e2e2;stroke-miterlimit:10}.st1{opacity:.5;fill:none;stroke:#ebebeb;stroke-width:4.3124;stroke-linecap:round}.st1,.st2{stroke-miterlimit:10}.st2{fill:#05526a;stroke:#05526a}.st3{opacity:.5;fill:#ebebeb}.st4{opacity:.1;fill:#ebebeb}.st5{fill:#ced4d6}.st6{fill:#9dadb3}.st7,.st8{fill:#05526a}.st8{opacity:.75}.st9{fill:#ececec}.st10{opacity:.25;fill:#ebebeb}.st11{fill:#FFF}.st12{stroke:#ced4d6}.st12,.st13{fill:#ced4d6;stroke-miterlimit:10}.st13{stroke:#e2e2e2}</style><path class="st13" d="M5 4.1c-1.7 0-3 1.3-3 3v256.5c0 1.7 1.3 3 3 3h73.1V4.1H5z"/><path class="st2" d="M398.3 7.1c0-1.7-1.3-3-3-3H78.1v54.5h320.2V7.1z"/><path class="st0" d="M78.1 58.5v208h317.2c1.7 0 3-1.3 3-3v-205H78.1z"/><path class="st6" d="M62.8 22.6c0-.9-.7-1.5-1.5-1.5h-43c-.9 0-1.5.7-1.5 1.5v29.6c0 .9.7 1.5 1.5 1.5h42.9c.9 0 1.5-.7 1.5-1.5V22.6z"/><path class="st9" d="M56.2 61H19.1c-1.1 0-2 .9-2 2v5c0 1.1.9 2 2 2h37.2c1.1 0 2-.9 2-2v-5c-.1-1.1-1-2-2.1-2zM51.8 73.8H19.2c-1.1 0-2 .9-2 2v5c0 1.1.9 2 2 2H51.8c1.1 0 2-.9 2-2v-5c0-1.1-.9-2-2-2z"/><path class="st4" d="M203.6 21.9h-99.9c-1.1 0-2 .9-2 2v5c0 1.1.9 2 2 2h99.9c1.1 0 2-.9 2-2v-5c0-1.1-.9-2-2-2z"/><path class="st3" d="M247.3 35.6H103.8c-1.1 0-2 .9-2 2v5c0 1.1.9 2 2 2h143.5c1.1 0 2-.9 2-2v-5c.1-1-.9-2-2-2z"/><g><path class="st5" d="M155.5 89.7c0-.9-.8-1.7-1.7-1.7h-47.7c-.9 0-1.7.8-1.7 1.7v32.8c0 .9.8 1.7 1.7 1.7h47.7c.9 0 1.7-.8 1.7-1.7V89.7zM227.8 89.7c0-.9-.8-1.7-1.7-1.7h-47.7c-.9 0-1.7.8-1.7 1.7v32.8c0 .9.8 1.7 1.7 1.7h47.7c.9 0 1.7-.8 1.7-1.7V89.7zM300 89.7c0-.9-.8-1.7-1.7-1.7h-47.7c-.9 0-1.7.8-1.7 1.7v32.8c0 .9.8 1.7 1.7 1.7h47.7c.9 0 1.7-.8 1.7-1.7V89.7zM372.2 89.7c0-.9-.8-1.7-1.7-1.7h-47.7c-.9 0-1.7.8-1.7 1.7v32.8c0 .9.8 1.7 1.7 1.7h47.7c.9 0 1.7-.8 1.7-1.7V89.7zM155.5 145.1c0-.9-.8-1.7-1.7-1.7h-47.7c-.9 0-1.7.8-1.7 1.7v32.8c0 .9.8 1.7 1.7 1.7h47.7c.9 0 1.7-.8 1.7-1.7v-32.8zM227.8 145.1c0-.9-.8-1.7-1.7-1.7h-47.7c-.9 0-1.7.8-1.7 1.7v32.8c0 .9.8 1.7 1.7 1.7h47.7c.9 0 1.7-.8 1.7-1.7v-32.8zM300 145.1c0-.9-.8-1.7-1.7-1.7h-47.7c-.9 0-1.7.8-1.7 1.7v32.8c0 .9.8 1.7 1.7 1.7h47.7c.9 0 1.7-.8 1.7-1.7v-32.8zM372.2 145.1c0-.9-.8-1.7-1.7-1.7h-47.7c-.9 0-1.7.8-1.7 1.7v32.8c0 .9.8 1.7 1.7 1.7h47.7c.9 0 1.7-.8 1.7-1.7v-32.8zM155.5 200.4c0-.9-.8-1.7-1.7-1.7h-47.7c-.9 0-1.7.8-1.7 1.7v32.8c0 .9.8 1.7 1.7 1.7h47.7c.9 0 1.7-.8 1.7-1.7v-32.8zM227.8 200.4c0-.9-.8-1.7-1.7-1.7h-47.7c-.9 0-1.7.8-1.7 1.7v32.8c0 .9.8 1.7 1.7 1.7h47.7c.9 0 1.7-.8 1.7-1.7v-32.8zM300 200.4c0-.9-.8-1.7-1.7-1.7h-47.7c-.9 0-1.7.8-1.7 1.7v32.8c0 .9.8 1.7 1.7 1.7h47.7c.9 0 1.7-.8 1.7-1.7v-32.8zM372.2 200.4c0-.9-.8-1.7-1.7-1.7h-47.7c-.9 0-1.7.8-1.7 1.7v32.8c0 .9.8 1.7 1.7 1.7h47.7c.9 0 1.7-.8 1.7-1.7v-32.8z"/></g></svg>