<svg id="Layer_1" xmlns="http://www.w3.org/2000/svg" width="400" height="270" viewBox="0 0 400 270"><style>.st0{fill:#FFF;stroke:#e2e2e2;stroke-miterlimit:10}.st1{opacity:.5;fill:none;stroke:#ebebeb;stroke-width:4.3124;stroke-linecap:round}.st1,.st2{stroke-miterlimit:10}.st2{fill:#05526a;stroke:#05526a}.st3{opacity:.5;fill:#ebebeb}.st4{opacity:.1;fill:#ebebeb}.st5{fill:#ced4d6}.st6{fill:#9dadb3}.st7,.st8{fill:#05526a}.st8{opacity:.75}.st9{fill:#ececec}.st10{opacity:.25;fill:#ebebeb}.st11{fill:#FFF}.st12{stroke:#ced4d6}.st12,.st13{fill:#ced4d6;stroke-miterlimit:10}.st13{stroke:#e2e2e2}</style><path class="st0" d="M6.3 17.8H393c2.8 0 5 2.3 5 5.2v238c0 2.9-2.2 5.2-5 5.2H6.3c-2.8 0-5-2.3-5-5.2V23c0-2.9 2.2-5.2 5-5.2z"/><path class="st1" d="M60.2 28.9h58.2"/><path class="st2" d="M395.3 3.4H4c-1.7 0-3 .9-3 2.1V33.1h397.3V5.5c0-1.2-1.4-2.1-3-2.1z"/><path class="st3" d="M81 14H17.2c-1.1 0-2 .9-2 2v5c0 1.1.9 2 2 2H81c1.1 0 2-.9 2-2v-5c0-1.1-.9-2-2-2z"/><path class="st4" d="M134.8 14H96.6c-.7 0-1.2.9-1.2 2v5c0 1.1.5 2 1.2 2h38.2c.7 0 1.2-.9 1.2-2v-5c0-1.1-.6-2-1.2-2zM182.7 14h-38.2c-.7 0-1.2.9-1.2 2v5c0 1.1.5 2 1.2 2h38.2c.7 0 1.2-.9 1.2-2v-5c0-1.1-.6-2-1.2-2zM343.3 14h-31.9c-.6 0-1 .9-1 2v5c0 1.1.5 2 1 2h31.9c.6 0 1-.9 1-2v-5c0-1.1-.4-2-1-2zM382.4 14h-31.9c-.6 0-1 .9-1 2v5c0 1.1.5 2 1 2h31.9c.6 0 1-.9 1-2v-5c0-1.1-.5-2-1-2zM265.2 14h-31.9c-.6 0-1 .9-1 2v5c0 1.1.5 2 1 2h31.9c.6 0 1-.9 1-2v-5c.1-1.1-.4-2-1-2zM304.3 14h-31.9c-.6 0-1 .9-1 2v5c0 1.1.5 2 1 2h31.9c.6 0 1-.9 1-2v-5c0-1.1-.5-2-1-2z"/><path class="st7" d="M194.9 83.6c0-.6-1.5-1.1-3.4-1.1h-40.9c-1.9 0-3.4.5-3.4 1.1v12.7c0 .6 1.5 1.1 3.4 1.1h40.9c1.9 0 3.4-.5 3.4-1.1V83.6z"/><path class="st8" d="M248.3 83.6c0-.6-1.5-1.1-3.4-1.1H204c-1.9 0-3.4.5-3.4 1.1v12.7c0 .6 1.5 1.1 3.4 1.1h40.9c1.9 0 3.4-.5 3.4-1.1V83.6z"/><path class="st6" d="M247.1 53.6h-99.9c-1.1 0-2 .9-2 2v5c0 1.1.9 2 2 2h99.9c1.1 0 2-.9 2-2v-5c.1-1.1-.8-2-2-2z"/><path class="st9" d="M269 67.4H125.5c-1.1 0-2 .9-2 2v5c0 1.1.9 2 2 2H269c1.1 0 2-.9 2-2v-5c0-1.1-.9-2-2-2z"/><path class="st5" d="M375.5 121.2H249.3c-1.7 0-3.2 1.4-3.2 3.2V185c0 1.7 1.4 3.2 3.2 3.2h126.2c1.7 0 3.2-1.4 3.2-3.2v-60.6c0-1.8-1.4-3.2-3.2-3.2z"/><g><path class="st9" d="M23.1 134.3h155c1 0 1.9-.9 1.9-2v-5c0-1.1-.8-2-1.9-2h-155c-1 0-1.9.9-1.9 2v5c0 1.1.9 2 1.9 2zM23.1 152.1H197.4c1 0 1.9-.9 1.9-2v-5c0-1.1-.8-2-1.9-2H23.1c-1 0-1.9.9-1.9 2v5c0 1.1.9 2 1.9 2zM218.7 160.5H23.1c-1 0-1.9.9-1.9 2v5c0 1.1.8 2 1.9 2h195.6c1 0 1.9-.9 1.9-2v-5c0-1.1-.9-2-1.9-2z"/></g><g><path class="st6" d="M72.8 217.2H41.6c-1.1 0-2 .9-2 2v5c0 1.1.9 2 2 2h31.3c1.1 0 2-.9 2-2v-5c0-1.1-.9-2-2.1-2z"/><path class="st9" d="M80.7 232h-47c-1.1 0-2 .9-2 2v5c0 1.1.9 2 2 2h47c1.1 0 2-.9 2-2v-5c.1-1.1-.8-2-2-2z"/></g><g><path class="st6" d="M170.7 217.2h-31.3c-1.1 0-2 .9-2 2v5c0 1.1.9 2 2 2h31.3c1.1 0 2-.9 2-2v-5c0-1.1-.9-2-2-2z"/><path class="st9" d="M178.6 232h-47c-1.1 0-2 .9-2 2v5c0 1.1.9 2 2 2h47c1.1 0 2-.9 2-2v-5c0-1.1-.9-2-2-2z"/></g><g><path class="st6" d="M268.5 217.2h-31.3c-1.1 0-2 .9-2 2v5c0 1.1.9 2 2 2h31.3c1.1 0 2-.9 2-2v-5c0-1.1-.9-2-2-2z"/><path class="st9" d="M276.4 232h-47c-1.1 0-2 .9-2 2v5c0 1.1.9 2 2 2h47c1.1 0 2-.9 2-2v-5c0-1.1-.9-2-2-2z"/></g><g><path class="st6" d="M366.3 217.2H335c-1.1 0-2 .9-2 2v5c0 1.1.9 2 2 2h31.3c1.1 0 2-.9 2-2v-5c0-1.1-.9-2-2-2z"/><path class="st9" d="M374.2 232h-47c-1.1 0-2 .9-2 2v5c0 1.1.9 2 2 2h47c1.1 0 2-.9 2-2v-5c0-1.1-.9-2-2-2z"/></g></svg>